# xmcd
#
# Track frame offsets:
#	182
#	18862
#	34815
#	47087
#	61082
#	83205
#	100480
#	114822
#	128930
#	146320
#	165482
#	180492
#
# Disc length: 2588 seconds
#
# Revision: 2
# Processed by: cddbd v1.5.2PL0 Copyright (c) Steve Scherf et al.
# Submitted via: audiograbber 1.83.01
#
DISCID=8f0a1a0c
DTITLE=Steve Azar - Heartbreak Town
DYEAR=1996
DGENRE=Country
TTITLE0=I Never Stopped Lovin' You
TTITLE1=Nights Like This
TTITLE2=What Are We Waitin' For
TTITLE3=Someday
TTITLE4=Thunderbird
TTITLE5=As Long As harley Gets To Play
TTITLE6=Dreams Of A Dancer
TTITLE7=Heartbreak Town
TTITLE8=I Go Crazy
TTITLE9=Caught Between The Rock and The Roll
TTITLE10=Love Had No Right
TTITLE11=You Don't Even Have To Try
EXTD=
EXTT0=
EXTT1=
EXTT2=
EXTT3=
EXTT4=
EXTT5=
EXTT6=
EXTT7=
EXTT8=
EXTT9=
EXTT10=
EXTT11=
PLAYORDER=
